<svg xmlns:xlink="http://www.w3.org/1999/xlink" xmlns="http://www.w3.org/2000/svg" class="icon" focusable="false" aria-hidden="true" data-di-res-id="4076649a-ccbeb5f6" data-di-rand="1723608921189" width="96"  height="96" ><defs><symbol viewBox="0 0 96 96" id="message-regular" xmlns="http://www.w3.org/2000/svg"><path d="M80 6.5c5.79 0 10.5 4.71 10.5 10.5v44c0 5.79-4.71 10.5-10.5 10.5H39.912L22.774 88.761a2.497 2.497 0 01-2.727.551A2.502 2.502 0 0118.5 87V71.5H16c-5.79 0-10.5-4.71-10.5-10.5V17c0-5.79 4.71-10.5 10.5-10.5h64zm0 5H16a5.506 5.506 0 00-5.5 5.5v44c0 3.033 2.467 5.5 5.5 5.5h5a2.5 2.5 0 012.5 2.5v11.934l13.597-13.695a2.499 2.499 0 011.774-.739H80c3.033 0 5.5-2.467 5.5-5.5V17c0-3.033-2.467-5.5-5.5-5.5zM48 34a5 5 0 11-.001 10.001A5 5 0 0148 34zm19 0a5 5 0 11-.001 10.001A5 5 0 0167 34zm-38 0a5 5 0 11-.001 10.001A5 5 0 0129 34z"></path></symbol></defs><use xlink:href="#message-regular" href="#message-regular"></use></svg>